<mxfile host="65bd71144e" scale="1" border="10">
    <diagram name="Page-1" id="RgiJcN-K5QOPgX9-2OjE">
        <mxGraphModel dx="966" dy="791" grid="1" gridSize="10" guides="1" tooltips="1" connect="1" arrows="1" fold="1" page="1" pageScale="1" pageWidth="827" pageHeight="1169" background="#ffffff" math="0" shadow="0">
            <root>
                <mxCell id="0"/>
                <mxCell id="1" parent="0"/>
                <mxCell id="DqPEKb3I0cpiD67G2OCG-3" value="User" style="sketch=0;outlineConnect=0;fontColor=#232F3E;gradientColor=none;fillColor=#232F3D;strokeColor=none;dashed=0;verticalLabelPosition=bottom;verticalAlign=top;align=center;html=1;fontSize=12;fontStyle=0;aspect=fixed;pointerEvents=1;shape=mxgraph.aws4.user;" parent="1" vertex="1">
                    <mxGeometry x="120" y="221" width="40" height="40" as="geometry"/>
                </mxCell>
                <mxCell id="DqPEKb3I0cpiD67G2OCG-4" value="New Data" style="sketch=0;html=1;aspect=fixed;strokeColor=none;shadow=0;fillColor=#3B8DF1;verticalAlign=top;labelPosition=center;verticalLabelPosition=bottom;shape=mxgraph.gcp2.database_uploading" parent="1" vertex="1">
                    <mxGeometry x="240" y="227.4" width="40" height="33.6" as="geometry"/>
                </mxCell>
                <mxCell id="DqPEKb3I0cpiD67G2OCG-5" value="GitHub&lt;br&gt;Repository" style="verticalLabelPosition=bottom;html=1;verticalAlign=top;align=center;strokeColor=none;fillColor=#00BEF2;shape=mxgraph.azure.git_repository;aspect=fixed;" parent="1" vertex="1">
                    <mxGeometry x="360" y="221" width="40" height="40" as="geometry"/>
                </mxCell>
                <mxCell id="DqPEKb3I0cpiD67G2OCG-6" value="AWS Cloud" style="points=[[0,0],[0.25,0],[0.5,0],[0.75,0],[1,0],[1,0.25],[1,0.5],[1,0.75],[1,1],[0.75,1],[0.5,1],[0.25,1],[0,1],[0,0.75],[0,0.5],[0,0.25]];outlineConnect=0;gradientColor=none;html=1;whiteSpace=wrap;fontSize=12;fontStyle=0;container=1;pointerEvents=0;collapsible=0;recursiveResize=0;shape=mxgraph.aws4.group;grIcon=mxgraph.aws4.group_aws_cloud_alt;strokeColor=#232F3E;fillColor=none;verticalAlign=top;align=left;spacingLeft=30;fontColor=#232F3E;dashed=0;" parent="1" vertex="1">
                    <mxGeometry x="480" y="121" width="241" height="241" as="geometry"/>
                </mxCell>
                <mxCell id="DqPEKb3I0cpiD67G2OCG-1" value="AutoML&lt;br&gt;Bucket" style="sketch=0;points=[[0,0,0],[0.25,0,0],[0.5,0,0],[0.75,0,0],[1,0,0],[0,1,0],[0.25,1,0],[0.5,1,0],[0.75,1,0],[1,1,0],[0,0.25,0],[0,0.5,0],[0,0.75,0],[1,0.25,0],[1,0.5,0],[1,0.75,0]];outlineConnect=0;fontColor=#232F3E;fillColor=#7AA116;strokeColor=#ffffff;dashed=0;verticalLabelPosition=bottom;verticalAlign=top;align=center;html=1;fontSize=12;fontStyle=0;aspect=fixed;shape=mxgraph.aws4.resourceIcon;resIcon=mxgraph.aws4.s3;" parent="DqPEKb3I0cpiD67G2OCG-6" vertex="1">
                    <mxGeometry x="40" y="39" width="40" height="40" as="geometry"/>
                </mxCell>
                <mxCell id="DqPEKb3I0cpiD67G2OCG-2" value="Data&lt;br&gt;Preprocessing" style="sketch=0;points=[[0,0,0],[0.25,0,0],[0.5,0,0],[0.75,0,0],[1,0,0],[0,1,0],[0.25,1,0],[0.5,1,0],[0.75,1,0],[1,1,0],[0,0.25,0],[0,0.5,0],[0,0.75,0],[1,0.25,0],[1,0.5,0],[1,0.75,0]];outlineConnect=0;fontColor=#232F3E;fillColor=#ED7100;strokeColor=#ffffff;dashed=0;verticalLabelPosition=bottom;verticalAlign=top;align=center;html=1;fontSize=12;fontStyle=0;aspect=fixed;shape=mxgraph.aws4.resourceIcon;resIcon=mxgraph.aws4.lambda;" parent="DqPEKb3I0cpiD67G2OCG-6" vertex="1">
                    <mxGeometry x="160" y="39" width="40" height="40" as="geometry"/>
                </mxCell>
                <mxCell id="DqPEKb3I0cpiD67G2OCG-16" value="" style="edgeStyle=orthogonalEdgeStyle;html=1;endArrow=block;elbow=vertical;startArrow=none;endFill=1;strokeColor=#545B64;rounded=0;" parent="DqPEKb3I0cpiD67G2OCG-6" edge="1">
                    <mxGeometry width="100" relative="1" as="geometry">
                        <mxPoint x="95.5" y="58.849999999999994" as="sourcePoint"/>
                        <mxPoint x="145.5" y="58.849999999999994" as="targetPoint"/>
                    </mxGeometry>
                </mxCell>
                <mxCell id="DqPEKb3I0cpiD67G2OCG-17" value="4" style="edgeLabel;html=1;align=center;verticalAlign=middle;resizable=0;points=[];" parent="DqPEKb3I0cpiD67G2OCG-16" vertex="1" connectable="0">
                    <mxGeometry x="-0.0646" relative="1" as="geometry">
                        <mxPoint as="offset"/>
                    </mxGeometry>
                </mxCell>
                <mxCell id="DqPEKb3I0cpiD67G2OCG-7" value="" style="edgeStyle=orthogonalEdgeStyle;html=1;endArrow=block;elbow=vertical;startArrow=none;endFill=1;strokeColor=#545B64;rounded=0;" parent="1" edge="1">
                    <mxGeometry width="100" relative="1" as="geometry">
                        <mxPoint x="176" y="240.85" as="sourcePoint"/>
                        <mxPoint x="226" y="240.85" as="targetPoint"/>
                    </mxGeometry>
                </mxCell>
                <mxCell id="DqPEKb3I0cpiD67G2OCG-10" value="1" style="edgeLabel;html=1;align=center;verticalAlign=middle;resizable=0;points=[];" parent="DqPEKb3I0cpiD67G2OCG-7" vertex="1" connectable="0">
                    <mxGeometry x="-0.0338" relative="1" as="geometry">
                        <mxPoint as="offset"/>
                    </mxGeometry>
                </mxCell>
                <mxCell id="DqPEKb3I0cpiD67G2OCG-8" value="" style="edgeStyle=orthogonalEdgeStyle;html=1;endArrow=block;elbow=vertical;startArrow=none;endFill=1;strokeColor=#545B64;rounded=0;" parent="1" edge="1">
                    <mxGeometry width="100" relative="1" as="geometry">
                        <mxPoint x="298" y="240.85" as="sourcePoint"/>
                        <mxPoint x="348" y="240.85" as="targetPoint"/>
                    </mxGeometry>
                </mxCell>
                <mxCell id="DqPEKb3I0cpiD67G2OCG-11" value="2" style="edgeLabel;html=1;align=center;verticalAlign=middle;resizable=0;points=[];" parent="DqPEKb3I0cpiD67G2OCG-8" vertex="1" connectable="0">
                    <mxGeometry x="-0.0646" relative="1" as="geometry">
                        <mxPoint as="offset"/>
                    </mxGeometry>
                </mxCell>
                <mxCell id="DqPEKb3I0cpiD67G2OCG-14" value="" style="edgeStyle=orthogonalEdgeStyle;html=1;endArrow=block;elbow=vertical;startArrow=none;endFill=1;strokeColor=#545B64;rounded=0;" parent="1" edge="1">
                    <mxGeometry width="100" relative="1" as="geometry">
                        <mxPoint x="415" y="239.85" as="sourcePoint"/>
                        <mxPoint x="465" y="239.85" as="targetPoint"/>
                    </mxGeometry>
                </mxCell>
                <mxCell id="DqPEKb3I0cpiD67G2OCG-15" value="3" style="edgeLabel;html=1;align=center;verticalAlign=middle;resizable=0;points=[];" parent="DqPEKb3I0cpiD67G2OCG-14" vertex="1" connectable="0">
                    <mxGeometry x="-0.0646" relative="1" as="geometry">
                        <mxPoint as="offset"/>
                    </mxGeometry>
                </mxCell>
            </root>
        </mxGraphModel>
    </diagram>
</mxfile>
